<mxfile host="app.diagrams.net" modified="2024-04-23T04:17:06.721Z" agent="Mozilla/5.0 (Windows NT 10.0; Win64; x64) AppleWebKit/537.36 (KHTML, like Gecko) Chrome/124.0.0.0 Safari/537.36 Edg/124.0.0.0" etag="QxxyRYH1pOeQngb4adH-" version="24.1.0" type="device">
  <diagram name="Page-1" id="jpTJRevYk5R8dHkVbWP_">
    <mxGraphModel dx="1002" dy="569" grid="1" gridSize="10" guides="1" tooltips="1" connect="1" arrows="1" fold="1" page="1" pageScale="1" pageWidth="850" pageHeight="1100" math="0" shadow="0">
      <root>
        <mxCell id="0" />
        <mxCell id="1" parent="0" />
        <mxCell id="3U0Csk8tPeNNgf8OEVdT-12" value="" style="edgeStyle=orthogonalEdgeStyle;rounded=0;orthogonalLoop=1;jettySize=auto;html=1;" edge="1" parent="1" source="3U0Csk8tPeNNgf8OEVdT-1" target="3U0Csk8tPeNNgf8OEVdT-2">
          <mxGeometry relative="1" as="geometry" />
        </mxCell>
        <mxCell id="3U0Csk8tPeNNgf8OEVdT-1" value="User" style="whiteSpace=wrap;html=1;aspect=fixed;" vertex="1" parent="1">
          <mxGeometry x="385" y="30" width="60" height="60" as="geometry" />
        </mxCell>
        <mxCell id="3U0Csk8tPeNNgf8OEVdT-2" value="Password Manager" style="whiteSpace=wrap;html=1;aspect=fixed;" vertex="1" parent="1">
          <mxGeometry x="385" y="130" width="60" height="60" as="geometry" />
        </mxCell>
        <mxCell id="3U0Csk8tPeNNgf8OEVdT-3" value="Exit program" style="whiteSpace=wrap;html=1;aspect=fixed;" vertex="1" parent="1">
          <mxGeometry x="500" y="210" width="60" height="60" as="geometry" />
        </mxCell>
        <mxCell id="3U0Csk8tPeNNgf8OEVdT-11" value="" style="edgeStyle=orthogonalEdgeStyle;rounded=0;orthogonalLoop=1;jettySize=auto;html=1;" edge="1" parent="1" source="3U0Csk8tPeNNgf8OEVdT-4" target="3U0Csk8tPeNNgf8OEVdT-5">
          <mxGeometry relative="1" as="geometry" />
        </mxCell>
        <mxCell id="3U0Csk8tPeNNgf8OEVdT-4" value="Create username" style="whiteSpace=wrap;html=1;aspect=fixed;" vertex="1" parent="1">
          <mxGeometry x="280" y="210" width="60" height="60" as="geometry" />
        </mxCell>
        <mxCell id="3U0Csk8tPeNNgf8OEVdT-10" value="" style="edgeStyle=orthogonalEdgeStyle;rounded=0;orthogonalLoop=1;jettySize=auto;html=1;" edge="1" parent="1" source="3U0Csk8tPeNNgf8OEVdT-5" target="3U0Csk8tPeNNgf8OEVdT-9">
          <mxGeometry relative="1" as="geometry" />
        </mxCell>
        <mxCell id="3U0Csk8tPeNNgf8OEVdT-5" value="Password generated." style="whiteSpace=wrap;html=1;aspect=fixed;" vertex="1" parent="1">
          <mxGeometry x="280" y="310" width="60" height="60" as="geometry" />
        </mxCell>
        <mxCell id="3U0Csk8tPeNNgf8OEVdT-6" style="edgeStyle=orthogonalEdgeStyle;rounded=0;orthogonalLoop=1;jettySize=auto;html=1;exitX=0.5;exitY=1;exitDx=0;exitDy=0;" edge="1" parent="1" source="3U0Csk8tPeNNgf8OEVdT-2" target="3U0Csk8tPeNNgf8OEVdT-2">
          <mxGeometry relative="1" as="geometry" />
        </mxCell>
        <mxCell id="3U0Csk8tPeNNgf8OEVdT-8" value="Enter URL" style="whiteSpace=wrap;html=1;aspect=fixed;" vertex="1" parent="1">
          <mxGeometry x="280" y="390" width="60" height="60" as="geometry" />
        </mxCell>
        <mxCell id="3U0Csk8tPeNNgf8OEVdT-23" value="" style="edgeStyle=orthogonalEdgeStyle;rounded=0;orthogonalLoop=1;jettySize=auto;html=1;" edge="1" parent="1" source="3U0Csk8tPeNNgf8OEVdT-9" target="3U0Csk8tPeNNgf8OEVdT-17">
          <mxGeometry relative="1" as="geometry" />
        </mxCell>
        <mxCell id="3U0Csk8tPeNNgf8OEVdT-9" value="User created.." style="whiteSpace=wrap;html=1;aspect=fixed;" vertex="1" parent="1">
          <mxGeometry x="280" y="480" width="60" height="60" as="geometry" />
        </mxCell>
        <mxCell id="3U0Csk8tPeNNgf8OEVdT-14" value="" style="endArrow=classic;html=1;rounded=0;entryX=0;entryY=0;entryDx=0;entryDy=0;exitX=1;exitY=1;exitDx=0;exitDy=0;" edge="1" parent="1" source="3U0Csk8tPeNNgf8OEVdT-2" target="3U0Csk8tPeNNgf8OEVdT-3">
          <mxGeometry width="50" height="50" relative="1" as="geometry">
            <mxPoint x="400" y="220" as="sourcePoint" />
            <mxPoint x="450" y="170" as="targetPoint" />
          </mxGeometry>
        </mxCell>
        <mxCell id="3U0Csk8tPeNNgf8OEVdT-16" value="" style="endArrow=classic;html=1;rounded=0;entryX=1;entryY=0;entryDx=0;entryDy=0;exitX=0;exitY=1;exitDx=0;exitDy=0;" edge="1" parent="1" source="3U0Csk8tPeNNgf8OEVdT-2" target="3U0Csk8tPeNNgf8OEVdT-4">
          <mxGeometry width="50" height="50" relative="1" as="geometry">
            <mxPoint x="400" y="220" as="sourcePoint" />
            <mxPoint x="450" y="170" as="targetPoint" />
          </mxGeometry>
        </mxCell>
        <mxCell id="3U0Csk8tPeNNgf8OEVdT-17" value="Do you wish to continue y/n" style="whiteSpace=wrap;html=1;aspect=fixed;" vertex="1" parent="1">
          <mxGeometry x="380" y="480" width="60" height="60" as="geometry" />
        </mxCell>
        <mxCell id="3U0Csk8tPeNNgf8OEVdT-21" value="" style="edgeStyle=orthogonalEdgeStyle;rounded=0;orthogonalLoop=1;jettySize=auto;html=1;" edge="1" parent="1" source="3U0Csk8tPeNNgf8OEVdT-18" target="3U0Csk8tPeNNgf8OEVdT-20">
          <mxGeometry relative="1" as="geometry" />
        </mxCell>
        <mxCell id="3U0Csk8tPeNNgf8OEVdT-18" value="View stored users" style="whiteSpace=wrap;html=1;aspect=fixed;" vertex="1" parent="1">
          <mxGeometry x="385" y="230" width="60" height="60" as="geometry" />
        </mxCell>
        <mxCell id="3U0Csk8tPeNNgf8OEVdT-19" value="" style="endArrow=classic;html=1;rounded=0;entryX=0.5;entryY=0;entryDx=0;entryDy=0;exitX=0.5;exitY=1;exitDx=0;exitDy=0;" edge="1" parent="1" source="3U0Csk8tPeNNgf8OEVdT-2" target="3U0Csk8tPeNNgf8OEVdT-18">
          <mxGeometry width="50" height="50" relative="1" as="geometry">
            <mxPoint x="400" y="390" as="sourcePoint" />
            <mxPoint x="450" y="340" as="targetPoint" />
          </mxGeometry>
        </mxCell>
        <mxCell id="3U0Csk8tPeNNgf8OEVdT-20" value="Error message if none have been created" style="whiteSpace=wrap;html=1;aspect=fixed;" vertex="1" parent="1">
          <mxGeometry x="375" y="320" width="80" height="80" as="geometry" />
        </mxCell>
        <mxCell id="3U0Csk8tPeNNgf8OEVdT-27" value="" style="edgeStyle=orthogonalEdgeStyle;rounded=0;orthogonalLoop=1;jettySize=auto;html=1;" edge="1" parent="1" source="3U0Csk8tPeNNgf8OEVdT-24" target="3U0Csk8tPeNNgf8OEVdT-25">
          <mxGeometry relative="1" as="geometry" />
        </mxCell>
        <mxCell id="3U0Csk8tPeNNgf8OEVdT-28" value="" style="edgeStyle=orthogonalEdgeStyle;rounded=0;orthogonalLoop=1;jettySize=auto;html=1;" edge="1" parent="1" source="3U0Csk8tPeNNgf8OEVdT-24" target="3U0Csk8tPeNNgf8OEVdT-26">
          <mxGeometry relative="1" as="geometry" />
        </mxCell>
        <mxCell id="3U0Csk8tPeNNgf8OEVdT-24" value="Do you wish to continue y/n" style="whiteSpace=wrap;html=1;aspect=fixed;" vertex="1" parent="1">
          <mxGeometry x="380" y="475" width="70" height="70" as="geometry" />
        </mxCell>
        <mxCell id="3U0Csk8tPeNNgf8OEVdT-25" value="No program exits" style="whiteSpace=wrap;html=1;aspect=fixed;" vertex="1" parent="1">
          <mxGeometry x="380" y="570" width="70" height="70" as="geometry" />
        </mxCell>
        <mxCell id="3U0Csk8tPeNNgf8OEVdT-26" value="Yes. Create another user loop" style="whiteSpace=wrap;html=1;aspect=fixed;" vertex="1" parent="1">
          <mxGeometry x="510" y="475" width="75" height="75" as="geometry" />
        </mxCell>
      </root>
    </mxGraphModel>
  </diagram>
</mxfile>
